<svg width="79" height="41" viewBox="0 0 79 41" fill="none" xmlns="http://www.w3.org/2000/svg">
<path d="M8.09565 0.640503C9.29358 1.6727 9.89458 2.72557 10.2133 3.48086C11.5702 6.69299 10.3342 10.3292 8.35559 12.9895C7.21606 14.5216 5.7448 15.7711 4.5566 17.2687C3.32663 18.8194 2.26496 20.5105 1.47824 22.3292C-0.267565 26.3647 -0.856392 31.6388 1.89836 35.3763C5.07203 39.6827 11.8476 41.081 16.3899 38.074C18.7205 36.5309 20.3081 33.9732 20.6241 31.2516C20.8572 29.2415 20.4221 27.2376 19.8085 25.326C19.2712 23.6528 18.1021 21.7486 18.1479 19.97C18.1588 19.5374 18.1998 19.0477 18.2935 18.5146C18.4354 17.7058 18.6601 17.0166 18.8851 16.466C17.7728 19.4422 13.9231 20.0434 13.0962 16.8134C12.7531 15.4731 13.1031 13.9861 13.297 12.6453C13.5192 11.1068 13.6461 9.54308 13.4604 7.99398C13.0764 4.79117 11.1112 2.01609 8.09565 0.640503Z" fill="#EC352F"/>
<path d="M22.2482 18.0622H18.0563V37.6557H22.2482V18.0622Z" fill="white"/>
<path d="M14.5819 27.4463C15.9307 26.629 16.8314 25.1484 16.8314 23.4574C16.8314 21.014 14.9502 19.0092 12.5575 18.8129C12.5255 18.8105 12.4939 18.8085 12.4618 18.8061H4.95105V37.6621H12.5563C12.5563 37.6621 13.0089 37.6645 13.2417 37.6645C15.4295 37.6645 17.3026 36.3128 18.0687 34.3993V30.5376C17.4644 29.0299 16.1736 27.8704 14.5819 27.4463ZM9.21883 22.3356H11.3028C11.9505 22.8031 12.3722 23.5632 12.3722 24.4215C12.3722 25.2137 12.0141 25.9216 11.4509 26.3935H9.21883V22.3356ZM12.5559 34.1422V34.1309H9.21883V29.9242H12.485C13.2818 30.3005 13.8325 31.1117 13.8325 32.0511C13.8325 32.9904 13.3143 33.7522 12.5559 34.1422Z" fill="white"/>
<path d="M45.1795 29.3024L47.4152 25.8969H31.5777V27.2944C30.5185 26.3266 29.1084 25.7375 27.5601 25.7375C25.2551 25.7375 23.2542 27.047 22.2635 28.9618V34.4301C23.2542 36.3461 25.2551 37.6556 27.5601 37.6556C29.1084 37.6556 30.5185 37.0666 31.5777 36.0976V37.6532H37.4672V37.6556H47.3345V37.6532H45.6337L47.3345 35.3099V34.2497H41.9329L45.1795 29.3024ZM31.5777 32.9552C31.1466 33.9489 30.1571 34.643 29.0058 34.643C27.4575 34.643 26.2036 33.3894 26.2036 31.8415C26.2036 30.2936 27.4575 29.0401 29.0058 29.0401C30.1571 29.0401 31.147 29.7342 31.5777 30.7278V32.9552ZM37.4806 34.2501L37.4668 34.2696L35.5742 36.876V29.3024H41.0715L37.4806 34.2501Z" fill="white"/>
<path d="M36.6184 40.9741L36.6016 40.9985V40.9741H36.6184Z" fill="white"/>
<path d="M57.3735 34.2725C57.5398 34.5997 57.7393 34.9106 57.9664 35.2013V37.678H48.0983V37.6756H45.6428L51.7046 29.3244H46.2073V27.7745L47.4247 25.9189H58.0475L52.5648 34.2721L57.3735 34.2725Z" fill="white"/>
<path d="M52.3176 40.9741L52.2988 41V40.9741H52.3176Z" fill="white"/>
<path d="M69.6922 31.7747C69.6922 31.2448 69.616 30.7319 69.47 30.2438C68.7311 27.7375 66.2173 25.8933 63.2293 25.8933C59.6611 25.8933 56.7676 28.5261 56.7676 31.7743C56.7676 32.6589 56.9822 33.4985 57.3674 34.251C57.5337 34.5781 57.7332 34.8891 57.9603 35.1798C59.1323 36.6786 61.0557 37.6565 63.2297 37.6565C65.6422 37.6565 67.7465 36.4528 68.856 34.6702L66.2019 33.338C65.6512 34.2441 64.6548 34.8494 63.5169 34.8494C62.0541 34.8494 60.8254 33.8488 60.4786 32.4947H69.6436C69.6768 32.2587 69.6922 32.0187 69.6922 31.7747ZM60.7439 30.2442C61.2706 29.2513 62.3149 28.5755 63.5165 28.5755C64.718 28.5755 65.7623 29.2513 66.2903 30.2442H60.7439Z" fill="white"/>
<path d="M76.1469 37.6568C77.4732 37.6568 78.5484 36.5819 78.5484 35.2559C78.5484 33.9299 77.4732 32.855 76.1469 32.855C74.8206 32.855 73.7454 33.9299 73.7454 35.2559C73.7454 36.5819 74.8206 37.6568 76.1469 37.6568Z" fill="white"/>
</svg>
