<svg width="74" height="23" viewBox="0 0 74 23" fill="none" xmlns="http://www.w3.org/2000/svg">
<path d="M17.2972 0H13.1052V19.5935H17.2972V0Z" fill="white"/>
<path d="M9.63089 9.3841C10.9797 8.56677 11.8804 7.08619 11.8804 5.39519C11.8804 2.95173 9.99911 0.946934 7.6065 0.750711C7.57446 0.748279 7.54283 0.746251 7.51079 0.743818H0V19.5998H7.60528C7.60528 19.5998 8.05785 19.6023 8.29062 19.6023C10.4784 19.6023 12.3516 18.2506 13.1176 16.337V12.4754C12.5134 10.9677 11.2226 9.80816 9.63089 9.3841ZM4.26778 4.27339H6.35179C6.99942 4.74084 7.42117 5.501 7.42117 6.35927C7.42117 7.15146 7.06309 7.85932 6.49981 8.33123H4.26778V4.27339ZM7.60488 16.08V16.0686H4.26778V11.862H7.53391C8.33077 12.2382 8.88148 13.0495 8.88148 13.9888C8.88148 14.9282 8.36321 15.69 7.60488 16.08Z" fill="white"/>
<path d="M40.2285 11.2402L42.4642 7.83464H26.6267V9.23212C25.5674 8.26438 24.1574 7.67531 22.6091 7.67531C20.3041 7.67531 18.3032 8.98481 17.3125 10.8996V16.3679C18.3032 18.2839 20.3041 19.5934 22.6091 19.5934C24.1574 19.5934 25.5674 19.0043 26.6267 18.0354V19.591H32.5161V19.5934H42.3835V19.591H40.6827L42.3835 17.2477V16.1875H36.9818L40.2285 11.2402ZM26.6267 14.893C26.1956 15.8867 25.2061 16.5807 24.0548 16.5807C22.5065 16.5807 21.2526 15.3272 21.2526 13.7793C21.2526 12.2314 22.5065 10.9778 24.0548 10.9778C25.2061 10.9778 26.196 11.6719 26.6267 12.6656V14.893ZM32.5295 16.1879L32.5157 16.2073L30.6231 18.8138V11.2402H36.1205L32.5295 16.1879Z" fill="white"/>
<path d="M31.6673 22.9119L31.6506 22.9362V22.9119H31.6673Z" fill="white"/>
<path d="M52.4225 16.2103C52.5887 16.5374 52.7883 16.8484 53.0154 17.1391V19.6158H43.1472V19.6133H40.6917L46.7536 11.2621H41.2562V9.71222L42.4736 7.85662H53.0965L47.6137 16.2099L52.4225 16.2103Z" fill="white"/>
<path d="M47.3665 22.9119L47.3477 22.9378V22.9119H47.3665Z" fill="white"/>
<path d="M64.7412 13.7124C64.7412 13.1826 64.665 12.6697 64.519 12.1816C63.7801 9.67528 61.2662 7.83103 58.2783 7.83103C54.71 7.83103 51.8166 10.4638 51.8166 13.712C51.8166 14.5967 52.0311 15.4363 52.4164 16.1887C52.5826 16.5159 52.7822 16.8269 53.0093 17.1175C54.1812 18.6164 56.1047 19.5942 58.2787 19.5942C60.6912 19.5942 62.7955 18.3906 63.905 16.6079L61.2508 15.2757C60.7001 16.1818 59.7037 16.7871 58.5658 16.7871C57.1031 16.7871 55.8743 15.7866 55.5276 14.4325H64.6925C64.7258 14.1965 64.7412 13.9565 64.7412 13.7124ZM55.7928 12.182C56.3196 11.1891 57.3638 10.5133 58.5654 10.5133C59.767 10.5133 60.8112 11.1891 61.3392 12.182H55.7928Z" fill="white"/>
<path d="M71.1959 19.5945C72.5222 19.5945 73.5974 18.5196 73.5974 17.1937C73.5974 15.8677 72.5222 14.7928 71.1959 14.7928C69.8695 14.7928 68.7943 15.8677 68.7943 17.1937C68.7943 18.5196 69.8695 19.5945 71.1959 19.5945Z" fill="white"/>
</svg>
