<svg width="37" height="36" viewBox="0 0 37 36" fill="none" xmlns="http://www.w3.org/2000/svg">
<g clip-path="url(#clip0_439_256)">
<path d="M15.6973 3.1038L15.2696 3.53148L16.1606 4.42248L17.0513 5.31348L12.1689 5.32788L7.28662 5.34912L7.26538 5.9334L7.24414 6.52488H12.1833H17.1225L16.1959 7.45152L15.2693 8.37816L15.7182 8.81988L16.1603 9.2688L17.8137 7.60812L19.4744 5.95464L17.835 4.3152C16.9368 3.417 16.1815 2.67576 16.1603 2.67576C16.139 2.67612 15.9324 2.86872 15.6973 3.1038Z" fill="white"/>
<path d="M2.84684 6.76027L1.19336 8.41375L2.8328 10.0532L4.47224 11.6926L4.91396 11.2437L5.36288 10.802L4.47188 9.91099L3.58088 9.01999L8.4632 9.00559L13.3455 8.98435L13.3668 8.39287L13.388 7.80859H8.4488H3.5096L4.43624 6.88195L5.36288 5.95531L4.9352 5.52763L4.50752 5.09995L2.84684 6.76027Z" fill="white"/>
<path d="M21.826 6.06874L20.6855 6.7315L20.6499 13.0819L20.6142 19.4323L19.7164 17.8785L18.8254 16.3251L17.3998 16.3107L15.9814 16.2895L15.283 17.5081L14.5918 18.7271L15.8248 20.8795L17.065 23.0247L17.3998 24.6998L17.7418 26.3749L19.8014 28.4417L21.8613 30.5084V31.9196V33.3236H22.4672H23.0734V31.6701V30.0095L20.971 27.9071L18.8754 25.8047L18.5406 24.2009C18.3624 23.3171 18.1702 22.5189 18.1202 22.4192C18.0701 22.3195 17.5712 21.4569 17.0225 20.5091C16.4663 19.5536 16.0174 18.7483 16.0174 18.7127C16.0174 18.6842 16.1672 18.3991 16.3454 18.0783L16.6802 17.4941L17.4002 17.5153L18.1202 17.5365L19.9731 20.751L21.826 23.9726L21.8616 15.698L21.8973 7.42342L22.496 7.08142L23.0874 6.73942L23.6861 7.07458L24.2848 7.41658V12.4548V17.5009H24.8907H25.4966V16.2891V15.0774L25.7673 14.9136C25.9098 14.8211 26.195 14.6569 26.3944 14.5428L26.7508 14.3433L27.3282 14.6781L27.8985 15.0061L27.9485 15.9327C27.977 16.4389 27.977 17.0019 27.9557 17.1801L27.9057 17.5009H28.5544H29.2031V16.6243V15.7549L29.8018 15.4197L30.4005 15.0777L31.0276 15.4269L31.6619 15.7761L31.6335 16.6387L31.605 17.5013H32.2181H32.8312L32.8524 16.8813L32.8737 16.2614L33.458 15.9263L34.0354 15.5915L34.6485 15.9479L35.2616 16.3043V19.9885V23.6731L34.0498 26.9019L32.838 30.1308V31.7274V33.324H33.4439H34.0498V31.8415V30.359L35.2616 27.1302L36.4733 23.8945V19.7531V15.6051L35.276 14.9139C34.6132 14.5363 34.057 14.2227 34.0286 14.2227C34.0073 14.2227 33.7434 14.3653 33.4511 14.5435C33.152 14.7217 32.8737 14.8643 32.838 14.8643C32.7952 14.8643 32.2394 14.6004 31.5906 14.2728L30.4077 13.6885L30.0372 13.8951C29.8306 14.0093 29.5527 14.1659 29.4173 14.2443L29.1606 14.3869L28.0986 13.7598C27.5072 13.4106 26.9654 13.0898 26.8869 13.0398C26.7587 12.9613 26.673 12.9897 26.1384 13.3037L25.5326 13.6529L25.4969 10.1817L25.4613 6.71062L24.3208 6.04786C23.6937 5.68426 23.1306 5.3923 23.0734 5.3923C23.0162 5.39878 22.4531 5.6983 21.826 6.06874Z" fill="white"/>
</g>
<defs>
<clipPath id="clip0_439_256">
<rect width="36" height="36" fill="white" transform="translate(0.833984)"/>
</clipPath>
</defs>
</svg>
