<svg width="31" height="30" viewBox="0 0 31 30" fill="none" xmlns="http://www.w3.org/2000/svg">
<path d="M12.75 17.9252C12.75 18.9922 13.575 19.8502 14.587 19.8502H16.655C17.535 19.8502 18.25 19.1022 18.25 18.1672C18.25 17.1662 17.81 16.8032 17.161 16.5722L13.85 15.4172C13.201 15.1862 12.761 14.8342 12.761 13.8222C12.761 12.8982 13.476 12.1392 14.356 12.1392H16.424C17.436 12.1392 18.261 12.9972 18.261 14.0642" stroke="white" stroke-width="1.7" stroke-linecap="round" stroke-linejoin="round"/>
<path d="M15.5 11.0493V20.9493" stroke="white" stroke-width="1.7" stroke-linecap="round" stroke-linejoin="round"/>
<path d="M26.5 16C26.5 22.072 21.572 27 15.5 27C9.428 27 4.5 22.072 4.5 16C4.5 9.928 9.428 5 15.5 5" stroke="white" stroke-width="1.7" stroke-linecap="round" stroke-linejoin="round"/>
<path d="M26.484 9.4V5H22.084" stroke="white" stroke-width="1.7" stroke-linecap="round" stroke-linejoin="round"/>
<path d="M21 10.5L26.5 5" stroke="white" stroke-width="1.7" stroke-linecap="round" stroke-linejoin="round"/>
</svg>
