<svg width="23" height="25" viewBox="0 0 23 25" fill="none" xmlns="http://www.w3.org/2000/svg">
<path d="M11.5 15.375V17.875M5.25 9.786C5.83927 9.75 6.56574 9.75 7.5 9.75H15.5C16.4342 9.75 17.1608 9.75 17.75 9.786M5.25 9.786C4.5146 9.83088 3.99286 9.93187 3.54754 10.1587C2.84193 10.5182 2.26825 11.0919 1.90873 11.7975C1.5 12.5997 1.5 13.6498 1.5 15.75V17.5C1.5 19.6003 1.5 20.6502 1.90873 21.4525C2.26825 22.1581 2.84193 22.7318 3.54754 23.0913C4.3497 23.5 5.3998 23.5 7.5 23.5H15.5C17.6002 23.5 18.6502 23.5 19.4525 23.0913C20.1581 22.7318 20.7318 22.1581 21.0913 21.4525C21.5 20.6502 21.5 19.6003 21.5 17.5V15.75C21.5 13.6498 21.5 12.5997 21.0913 11.7975C20.7318 11.0919 20.1581 10.5182 19.4525 10.1587C19.0071 9.93187 18.4854 9.83088 17.75 9.786M5.25 9.786V7.25C5.25 3.79822 8.04822 1 11.5 1C14.9517 1 17.75 3.79822 17.75 7.25V9.786" stroke="white" stroke-width="2" stroke-linecap="round" stroke-linejoin="round"/>
</svg>
