<svg width="31" height="30" viewBox="0 0 31 30" fill="none" xmlns="http://www.w3.org/2000/svg">
<path fill-rule="evenodd" clip-rule="evenodd" d="M21.9167 26.5835C20.3978 26.5835 19.1667 25.3524 19.1667 23.8335C19.1667 22.3146 20.3978 21.0835 21.9167 21.0835C23.4356 21.0835 24.6667 22.3146 24.6667 23.8335C24.6667 25.3524 23.4356 26.5835 21.9167 26.5835ZM9.08333 19.2502C7.56442 19.2502 6.33333 18.0191 6.33333 16.5002C6.33333 14.9822 7.56442 13.7502 9.08333 13.7502C10.6023 13.7502 11.8333 14.9822 11.8333 16.5002C11.8333 18.0191 10.6023 19.2502 9.08333 19.2502ZM21.9167 6.41683C23.4356 6.41683 24.6667 7.64791 24.6667 9.16683C24.6667 10.6857 23.4356 11.9168 21.9167 11.9168C20.3978 11.9168 19.1667 10.6857 19.1667 9.16683C19.1667 7.64791 20.3978 6.41683 21.9167 6.41683ZM21.9167 19.2502C20.2942 19.2502 18.8779 20.0981 18.063 21.3695L13.1543 18.5645C13.4714 17.9412 13.6667 17.2463 13.6667 16.5002C13.6667 16.0391 13.5778 15.6027 13.4513 15.1829L18.558 12.2652C19.3949 13.1727 20.5848 13.7502 21.9167 13.7502C24.4485 13.7502 26.5 11.6987 26.5 9.16683C26.5 6.635 24.4485 4.5835 21.9167 4.5835C19.3848 4.5835 17.3333 6.635 17.3333 9.16683C17.3333 9.62792 17.4222 10.0642 17.5487 10.485L12.442 13.4018C11.6051 12.4952 10.4153 11.9168 9.08333 11.9168C6.5515 11.9168 4.5 13.9683 4.5 16.5002C4.5 19.032 6.5515 21.0835 9.08333 21.0835C10.1283 21.0835 11.0807 20.7205 11.8517 20.132L11.8333 20.1668L17.3837 23.3385C17.3654 23.5035 17.3333 23.663 17.3333 23.8335C17.3333 26.3653 19.3848 28.4168 21.9167 28.4168C24.4485 28.4168 26.5 26.3653 26.5 23.8335C26.5 21.3017 24.4485 19.2502 21.9167 19.2502Z" fill="white"/>
</svg>
